<?xml version="1.0" encoding="UTF-8" standalone="no"?>
<!-- Created with Inkscape (http://www.inkscape.org/) -->

<svg
   width="1920"
   height="1080"
   viewBox="0 0 508 285.75"
   version="1.1"
   id="svg5"
   inkscape:version="1.3.2 (1:1.3.2+202311252150+091e20ef0f)"
   sodipodi:docname="eye.svg"
   inkscape:export-filename="eye_4k.png"
   inkscape:export-xdpi="192"
   inkscape:export-ydpi="192"
   xmlns:inkscape="http://www.inkscape.org/namespaces/inkscape"
   xmlns:sodipodi="http://sodipodi.sourceforge.net/DTD/sodipodi-0.dtd"
   xmlns="http://www.w3.org/2000/svg"
   xmlns:svg="http://www.w3.org/2000/svg">
  <sodipodi:namedview
     id="namedview7"
     pagecolor="#29353b"
     bordercolor="#666666"
     borderopacity="1.0"
     inkscape:pageshadow="2"
     inkscape:pageopacity="0"
     inkscape:pagecheckerboard="0"
     inkscape:document-units="mm"
     showgrid="false"
     units="px"
     inkscape:zoom="0.26205014"
     inkscape:cx="11.448191"
     inkscape:cy="-51.516859"
     inkscape:window-width="1920"
     inkscape:window-height="1080"
     inkscape:window-x="0"
     inkscape:window-y="0"
     inkscape:window-maximized="1"
     inkscape:current-layer="layer1"
     inkscape:snap-midpoints="true"
     showguides="true"
     inkscape:guide-bbox="true"
     inkscape:showpageshadow="2"
     inkscape:deskcolor="#d1d1d1">
    <sodipodi:guide
       position="2.0288086e-08,142.875"
       orientation="0,-1"
       id="guide7699"
       inkscape:locked="false" />
    <sodipodi:guide
       position="254,285.75"
       orientation="1,0"
       id="guide1"
       inkscape:locked="false" />
  </sodipodi:namedview>
  <defs
     id="defs2">
    <clipPath
       clipPathUnits="userSpaceOnUse"
       id="clipPath860">
      <rect
         style="fill:#77daff;fill-rule:evenodd;stroke:#ffffff;stroke-width:0.600001;stroke-linecap:round;stroke-linejoin:round;stroke-dashoffset:22;stop-color:#000000"
         id="rect862"
         width="263.7677"
         height="207.36995"
         x="-471.0097"
         y="-36.542397" />
    </clipPath>
  </defs>
  <g
     inkscape:label="Layer 1"
     inkscape:groupmode="layer"
     id="layer1"
     transform="translate(-4.8367214,-5.1733975)">
    <rect
       style="fill:#0b1f26;fill-opacity:1;fill-rule:evenodd;stroke:none;stroke-width:0.6;stroke-linecap:round;stroke-linejoin:round;stroke-dashoffset:22;stop-color:#000000"
       id="rect5213"
       width="508"
       height="285.75"
       x="4.8367214"
       y="5.1733975"
       inkscape:export-filename="/home/mik/Pictures/wp/wp_projects/eye_of_the_universe/rect986.png"
       inkscape:export-xdpi="120"
       inkscape:export-ydpi="120" />
    <path
       id="rect986"
       style="fill:#ededef;fill-opacity:1;fill-rule:evenodd;stroke:none;stroke-width:0.600001;stroke-linecap:round;stroke-linejoin:round;stroke-dashoffset:22;stop-color:#000000"
       d="m 344.92493,57.89578 c -0.3951,0.05226 -2.57616,2.095704 -12.1884,11.286337 -6.12863,5.859838 -15.27022,14.584312 -20.31455,19.387917 -5.04434,4.803581 -12.99071,12.371566 -17.6586,16.817476 -12.90872,12.2948 -23.70436,23.05043 -24.12659,24.03781 -0.60287,1.40983 -0.48485,3.63665 0.19251,3.63665 0.11207,0 15.01475,-14.87635 33.11738,-33.05855 30.62714,-30.76186 41.05471,-41.435435 41.05471,-42.023151 0,-0.05877 -0.02,-0.09189 -0.0765,-0.08454 z m -88.64322,5.62688 c -0.15929,0 -0.25774,10.533067 -0.25774,27.590479 v 27.589981 l -1.92019,1.90521 -1.91964,1.90521 0.6192,0.47697 c 0.34074,0.26227 0.76612,0.47948 0.94538,0.48283 0.1793,0.003 1.25513,-0.74087 2.39075,-1.65441 1.1356,-0.91356 2.14233,-1.78694 2.23726,-1.9405 0.22852,-0.36973 0.17573,-4.11721 -0.3037,-21.44922 -0.65157,-23.552365 -1.08258,-34.144384 -1.41221,-34.701211 -0.0668,-0.112935 -0.23743,-0.205339 -0.37911,-0.205339 z m 33.19435,23.798265 c -0.45194,0.117859 -1.61375,1.648629 -3.67729,4.811404 -4.08619,6.26298 -17.32439,26.656971 -18.10186,27.886721 l -0.84058,1.32987 -0.0915,6.88343 -0.0909,6.88293 2.68268,2.9431 2.68324,2.94255 1.75762,-0.0679 c 1.20242,-0.0468 1.79743,-0.18797 1.88275,-0.44596 h -5.4e-4 c 0.0731,-0.22111 -1.25169,-1.6939 -3.2019,-3.5591 l -3.32705,-3.1816 0.007,-5.17289 0.007,-5.17288 4.75525,-8.10529 c 10.4511,-17.814357 15.77801,-27.142926 15.77801,-27.629536 0,-0.266497 -0.0718,-0.384191 -0.22245,-0.344873 z m -49.48139,4.948289 c -0.34459,0 0.19439,2.04091 1.9886,7.528879 2.15216,6.582657 5.17808,14.933387 6.52789,18.015247 0.91424,2.08744 2.0905,3.75 2.65327,3.75 0.13207,0 0.84365,-0.6468 1.58117,-1.43733 0.76096,-0.81569 1.41575,-1.81059 1.5138,-2.30038 0.15024,-0.75065 -0.44122,-5.89241 -0.88712,-7.71278 -0.29454,-1.20254 -0.61134,-0.17462 -0.90421,2.93079 -0.32948,3.49414 -0.56181,4.13927 -1.48866,4.13927 -0.83551,0 -0.98997,-0.33529 -5.50228,-11.91786 -3.77621,-9.69312 -5.16962,-12.995836 -5.48246,-12.995836 z m -38.54103,2.218567 c -0.11734,0.490471 8.49601,9.174419 27.80545,28.054599 l 10.05916,9.83514 0.285,7.39198 c 0.15695,4.06558 0.34617,7.5642 0.42027,7.77482 0.11018,0.313 0.79597,0.35374 3.75535,0.22406 1.99129,-0.0872 4.25728,-0.29815 5.03546,-0.46896 h 5.5e-4 c 1.29195,-0.28363 2.01943,-0.90026 1.58114,-1.34055 -0.0909,-0.0914 -2.06556,-0.20574 -4.38735,-0.25398 l -4.22109,-0.0877 -0.002,-4.97714 c -5.9e-4,-2.73747 -0.082,-6.00444 -0.17967,-7.2599 l -0.17754,-2.28272 -19.43494,-17.97677 c -10.68908,-9.88725 -19.67109,-18.143203 -19.96045,-18.346787 -0.36741,-0.258506 -0.56233,-0.356124 -0.57908,-0.286066 z m 67.55334,9.567739 c -0.12053,-0.12039 -0.36768,0.31941 -0.99137,1.62876 -2.13486,4.48187 -4.66296,11.5658 -4.96545,13.91288 l -0.29353,2.27739 -1.7234,1.35497 c -0.94808,0.74508 -1.72395,1.47537 -1.72395,1.62341 0,0.33658 2.31637,0.33899 4.62909,0.003 v 5.5e-4 c 0.96486,-0.13948 1.85608,-0.41436 1.9806,-0.61066 0.12448,-0.19629 0.22816,-1.51226 0.23047,-2.92437 0.003,-2.10136 0.28032,-3.80976 1.52501,-9.40949 0.83645,-3.76306 1.47558,-7.16584 1.42023,-7.56202 -0.0215,-0.15309 -0.0475,-0.25556 -0.0877,-0.29567 z m -39.46183,0.36469 c -0.12894,0.12894 4.88285,7.20032 10.79119,15.22668 l 3.52649,4.79111 2.07151,-0.084 c 1.90962,-0.0774 2.14362,-0.0258 3.00031,0.66307 1.51114,1.21504 4.62534,4.31226 4.62534,4.60018 0,0.1464 -0.31166,0.59123 -0.69247,0.98872 l -0.69247,0.72294 2.23352,1.98113 c 1.32736,1.17729 2.33381,1.88088 2.48056,1.73409 0.13584,-0.13583 0.21239,-1.83243 0.17005,-3.77031 l -0.077,-3.52381 -4.35584,-3.3746 -4.35582,-3.37463 -1.96081,0.17752 -1.96083,0.17807 -5.44079,-6.39898 c -6.68466,-7.86173 -9.20368,-10.69646 -9.36294,-10.53721 z m 31.6533,0.63578 c -0.19148,0.19263 -0.67983,5.19328 -1.22396,12.53759 l -0.18235,2.46399 -2.36294,2.22443 c -2.35989,2.22162 -2.36241,2.22546 -1.84157,2.80622 0.28686,0.31984 0.64172,0.58177 0.78924,0.58177 0.14753,0 1.42224,-1.13133 2.83243,-2.51425 l 2.56399,-2.51481 -5.9e-4,-4.80871 c -0.002,-5.84332 -0.27989,-11.07195 -0.57376,-10.77623 z m -25.81574,16.25816 c -0.12756,0.0194 -0.16578,0.14866 -0.16578,0.35451 0,0.8521 8.99127,10.02442 9.82657,10.02442 0.0988,0 1.07022,-0.89607 2.15812,-1.99132 1.97877,-1.99206 2.26476,-2.54023 1.64907,-3.15591 -0.55944,-0.55943 -1.18932,-0.37071 -2.65221,0.79406 -0.77537,0.61735 -1.56152,1.06186 -1.74692,0.98763 -0.18543,-0.0742 -2.04881,-1.57036 -4.14088,-3.32436 -3.36019,-2.81719 -4.54536,-3.74734 -4.92797,-3.68903 z m -12.24135,2.22123 c -0.29352,0.0979 4.98591,4.64071 8.86137,7.62512 0.86735,0.66794 1.6442,1.42532 1.72606,1.68329 0.0818,0.25796 -0.13483,0.97177 -0.48176,1.58651 l -0.63098,1.1181 1.09512,0.97909 c 0.6023,0.5386 1.43389,1.28346 1.84798,1.65495 0.66036,0.59242 0.7529,0.87408 0.7529,2.29449 v 1.61966 h -3.696 -3.69598 v 2.85914 2.85861 l 1.16356,0.0861 c 0.63994,0.0474 1.25594,0.0472 1.36887,-5.6e-4 0.11293,-0.0476 0.20533,-0.87618 0.20533,-1.84154 v -1.75549 l 3.49066,-0.0765 3.49066,-0.0765 0.077,-3.37731 0.077,-3.37729 -1.03522,-1.0261 c -0.5694,-0.5642 -1.27486,-1.15704 -1.56779,-1.31759 -0.51534,-0.28237 -0.50869,-0.32314 0.20533,-1.25925 0.40587,-0.53216 0.73792,-1.03139 0.73792,-1.10955 0,-0.45036 -13.53578,-9.29953 -13.99202,-9.14745 z m 48.10662,0.8101 c -0.64628,-0.12449 -0.97799,0.39208 -0.98335,1.52984 -0.006,1.06157 0.23736,1.11339 1.06784,0.2294 0.70913,-0.75485 0.66779,-1.61438 -0.0845,-1.75924 z m -5.95947,1.59829 -2.78427,0.003 c -4.34642,0.007 -3.90187,-0.66957 -4.11041,6.24553 -0.19126,6.34253 -0.061,7.57645 0.79834,7.57645 0.44938,0 0.55346,-0.26458 0.70103,-1.77955 0.0953,-0.97876 0.18773,-2.77795 0.20533,-3.9981 0.0176,-1.22018 0.11128,-2.97577 0.20802,-3.90133 l 0.1759,-1.68277 h 1.3026 1.30309 l 0.16791,3.2169 c 0.32768,6.26646 0.64672,9.10682 1.10044,9.79928 0.7694,1.17425 1.16771,0.84237 1.38122,-1.15126 v -4e-4 c 0.19558,-1.8264 -0.0378,-12.15939 -0.30641,-13.57602 z m -14.92672,2.57306 c -0.27483,0.0872 -2.06986,1.73193 -3.98845,3.65481 l -3.48852,3.49599 2.88856,3.28318 c 1.58872,1.80554 3.33688,3.7067 3.88473,4.22486 l 0.9962,0.94161 0.19785,-0.73949 c 0.1088,-0.40685 0.0876,-1.13907 -0.0471,-1.62717 -0.15237,-0.5518 -1.07543,-1.7128 -2.441,-3.07035 -1.36625,-1.35826 -2.19611,-2.4024 -2.19611,-2.7629 0,-0.3781 0.99897,-1.5386 2.87466,-3.33934 1.58106,-1.51786 2.87466,-2.87331 2.87466,-3.0121 0,-0.49311 -1.05832,-1.20691 -1.55553,-1.0491 z m 44.55077,0.24597 c -0.6905,0.0486 -3.04459,1.09825 -7.67804,3.41204 l -4.24354,2.11911 0.0197,2.46399 c 0.0245,3.02317 0.42186,4.49559 1.56567,5.79958 l 0.87856,1.00098 0.077,-3.19226 0.077,-3.19228 4.00237,-3.35645 c 5.78537,-4.85152 5.71818,-4.7902 5.49747,-5.01513 -0.0325,-0.0332 -0.0976,-0.0465 -0.19625,-0.0396 z m -17.55166,0.23847 c -0.16949,0.0308 -0.32104,0.128 -0.47536,0.28235 -0.60105,0.60109 -0.34214,1.18261 1.19884,2.69232 l 1.5277,1.49668 -0.0903,4.1521 c -0.0496,2.28377 -0.15964,4.22191 -0.24489,4.30717 -0.0853,0.0853 -1.40338,0.23686 -2.92919,0.33687 -1.74636,0.11445 -2.82086,0.30332 -2.89978,0.50908 -0.46255,1.20532 2.13727,1.82912 5.03384,1.20792 0.85463,-0.18329 1.7703,-0.62284 2.34047,-1.12347 l 0.93683,-0.8224 v -4.68735 -4.68733 l -1.84103,-1.85496 c -1.37998,-1.39061 -2.04857,-1.90107 -2.55706,-1.80898 z m -15.79939,0.65559 c -0.0702,0.0792 -0.1312,0.335 -0.22244,0.81224 -0.27345,1.43035 -0.30835,8.61104 -0.0449,9.2544 0.113,0.27602 0.3594,0.44962 0.54754,0.38553 0.25744,-0.0877 0.33548,-1.29999 0.31602,-4.8991 -0.0153,-2.83458 -0.14471,-4.99505 -0.31814,-5.30497 -0.12847,-0.22954 -0.20789,-0.32724 -0.27809,-0.2481 z m 13.62735,1.81429 c -0.40626,-5.8e-4 -0.78833,0.33205 -1.85815,1.40417 l -1.56458,1.56834 2.89979,2.86825 c 1.59486,1.57756 3.04245,2.86825 3.21688,2.86825 0.20459,0 0.31709,-0.5748 0.31709,-1.61967 0,-1.51141 -0.0732,-1.6986 -1.09512,-2.79446 -0.6023,-0.6459 -1.0951,-1.22248 -1.0951,-1.28119 0,-0.0588 0.21275,-0.46702 0.47323,-0.90796 0.56261,-0.95242 0.28655,-1.60223 -0.85343,-2.0084 -0.16721,-0.0596 -0.30517,-0.097 -0.44061,-0.0974 z m -32.09978,0.27433 c -0.13882,0.0904 -0.2064,0.399 -0.2064,0.92828 0,1.02162 0.39594,1.16159 0.92293,0.32615 0.1962,-0.31102 0.17155,-0.56657 -0.0829,-0.87317 -0.28511,-0.34357 -0.49482,-0.47169 -0.63363,-0.38126 z m 7.98446,0.81759 c -0.1864,0.0289 -0.33979,0.13858 -0.48662,0.31549 -0.42388,0.51073 0.51335,1.724 3.45484,4.47183 1.98552,1.85485 2.45587,2.17469 2.76343,1.87849 0.24689,-0.23776 0.30866,-0.6392 0.18502,-1.20205 -0.12834,-0.58431 -0.95022,-1.56516 -2.66451,-3.17891 -1.83978,-1.73189 -2.69304,-2.37167 -3.25216,-2.28485 z m -12.60175,0.79085 c -0.0604,-0.0202 -0.20389,0.10906 -0.4893,0.36736 -0.70035,0.63379 -0.74385,1.05542 -0.0962,0.93201 0.26754,-0.051 0.52154,-0.39191 0.57533,-0.77213 0.0478,-0.33768 0.0706,-0.50706 0.0103,-0.52724 z m 39.32012,0.45932 c -0.15086,0.0112 -0.30333,0.16891 -0.36522,0.46625 -0.0517,0.24805 0.0994,0.42514 0.36253,0.42514 0.28196,0 0.41597,-0.17944 0.35826,-0.47911 -0.0556,-0.28854 -0.20476,-0.4236 -0.35557,-0.41228 z m -28.75193,0.9518 c -0.40927,-0.0487 -0.73531,0.15156 -1.13574,0.52777 l -0.62617,0.58766 2.49555,2.35543 c 1.37247,1.29527 2.80386,2.55988 3.18052,2.81047 0.76896,0.51172 1.63452,0.33166 2.09824,-0.43631 0.24113,-0.39935 -0.1642,-0.90797 -2.541,-3.19014 -1.87588,-1.80118 -2.78926,-2.57373 -3.4714,-2.65488 z m 46.05918,1.38972 c -0.11238,-0.0468 -0.37109,-0.0289 -0.7828,0.0599 -0.50723,0.10958 -2.33867,0.70943 -4.0703,1.33253 l -3.14842,1.13254 -0.0781,2.98373 c -0.0769,2.93581 -0.0659,2.99664 0.68444,3.79169 l 0.76252,0.80797 8.62397,-0.17858 c 4.74317,-0.0984 11.51475,-0.29858 15.04808,-0.44488 3.53337,-0.14633 6.54537,-0.38753 6.69363,-0.53581 0.17691,-0.17689 0.15198,-0.38716 -0.0727,-0.61171 -0.26517,-0.26506 -3.57736,-0.34222 -14.69143,-0.34222 -12.38972,0 -14.40492,-0.0561 -14.75934,-0.41066 -0.3346,-0.33478 -0.36504,-0.7322 -0.16419,-2.15066 0.13556,-0.95701 0.31645,-1.80988 0.40159,-1.89505 0.0851,-0.0852 1.34744,-0.78765 2.80514,-1.56082 2.10677,-1.11748 3.08514,-1.83769 2.74793,-1.97796 z m -80.37485,0.35348 c -0.33258,0.26482 0.48236,0.62588 2.34156,1.03734 1.81653,0.40206 16.8403,3.37167 17.37572,3.43449 0.10058,0.0118 0.37779,-0.0536 0.61601,-0.1449 0.23816,-0.0914 0.43311,-0.45609 0.43311,-0.81064 0,-0.51502 -0.20634,-0.69802 -1.02666,-0.91062 -1.40516,-0.36418 -19.54722,-2.75899 -19.73974,-2.60567 z m 28.41718,1.25337 c -0.15375,-0.0542 -0.25881,1.30762 -0.25881,3.35376 v 3.44521 l 2.66933,-0.003 c 1.46812,-0.002 2.81023,-0.0947 2.98266,-0.20534 0.20327,-0.1304 -0.64433,-1.30803 -2.41053,-3.34946 -1.49815,-1.73163 -2.84029,-3.18969 -2.98265,-3.23988 z m 23.98434,0.33314 c -0.0645,0.0276 -0.1213,0.0862 -0.17967,0.17163 -0.45841,0.67102 -0.0626,4.71566 0.6887,7.0412 0.37792,1.16983 0.76126,2.71231 0.85184,3.42755 l 0.16415,1.30044 h 2.82332 2.82277 l 0.17486,1.09511 0.1754,1.09511 h 1.36568 1.36568 v -1.91589 -1.91644 l -1.848,-0.002 c -1.01639,-5.8e-4 -2.86438,-0.0808 -4.10665,-0.17755 l -2.25865,-0.17593 v -4.14889 -4.14942 l -0.97052,-0.94056 c -0.61013,-0.59138 -0.87562,-0.78724 -1.06891,-0.70424 z m 24.87733,2.94737 c -0.38796,-0.0633 -0.73177,0.0676 -1.05342,0.38928 -0.50896,0.50898 -0.51302,0.54552 -0.14651,1.23038 0.21206,0.39623 0.57391,0.52878 1.43732,0.52563 0.63468,-0.002 1.33875,-0.12751 1.56461,-0.27806 0.34419,-0.2294 0.266,-0.40584 -0.48339,-1.09083 -0.49826,-0.4554 -0.93067,-0.71311 -1.31861,-0.7764 z m -20.34289,1.37264 c -0.92608,-0.13095 -1.1171,0.34671 -1.12186,2.80351 l -0.003,2.16296 5.21461,-0.19197 c 2.8677,-0.10561 5.45891,-0.28279 5.75891,-0.39357 0.5022,-0.18583 0.4755,-0.25291 -0.35505,-0.87586 -0.8299,-0.62246 -1.19638,-0.68542 -4.73225,-0.81169 l -3.83288,-0.13689 -0.13689,-1.23199 c -0.11585,-1.04257 -0.23731,-1.24633 -0.79031,-1.3245 z m -50.3958,0.007 c -0.31086,0.10879 0.60705,0.65784 2.15599,1.1737 2.22869,0.74221 2.48806,0.98785 2.48806,2.35758 v 0.79887 l -6.63907,0.0359 c -6.94575,0.0374 -11.03163,0.2699 -10.33508,0.58821 0.57115,0.26099 8.26156,0.65561 13.72358,0.7042 3.75638,0.0334 4.61237,-0.0318 4.89483,-0.37215 0.23635,-0.28478 0.28433,-0.8569 0.15506,-1.84798 -0.35397,-2.71408 -0.22668,-2.57625 -2.71209,-2.92227 -1.22982,-0.17121 -2.57446,-0.37828 -2.98855,-0.46038 -0.39897,-0.0792 -0.63909,-0.0919 -0.74273,-0.0555 z m 61.45487,0.77106 c -0.4427,0 -1.31457,0.99074 -1.19296,1.3555 0.0536,0.16067 1.3903,1.34097 2.9709,2.6228 l 2.87412,2.33031 4.65421,-0.14009 c 2.55981,-0.0771 7.5494,-0.20733 11.08796,-0.28928 25.35226,-0.58706 71.80451,-2.01461 75.2886,-2.31374 3.64921,-0.3133 -24.87852,-0.12087 -61.05222,0.41173 -14.68128,0.21619 -27.2681,0.39505 -27.97067,0.39783 -1.20634,0.006 -1.41816,-0.11647 -3.80453,-2.18484 -1.38984,-1.20463 -2.67483,-2.19022 -2.85541,-2.19022 z m -46.80191,2.19073 c -1.57737,0 -2.93314,0.12046 -3.02492,0.26896 -0.0915,0.14803 -0.0861,0.69613 0.0116,1.21812 0.16979,0.90499 0.23715,0.95298 1.45068,1.03144 l 1.27266,0.0819 0.0824,1.75172 0.0829,1.75123 2.65489,-0.1754 c 1.46035,-0.0967 4.22621,-0.17674 6.14607,-0.17754 v -5.1e-4 l 3.49066,-5.5e-4 v -1.09511 -1.09511 h -4.65421 -4.6542 v -1.77956 -1.77953 z m 45.60359,2.772 c -0.46608,-0.0293 -0.97099,-0.0221 -1.54159,0.0145 l -1.36889,0.0876 -0.0792,2.53245 -0.0786,2.53242 h -2.41961 -2.41906 l -0.16471,-0.82134 c -0.15348,-0.76738 -0.24563,-0.82132 -1.40312,-0.82132 h -1.23839 l 0.003,1.16355 c 0.006,1.60538 0.50487,2.47396 1.54372,2.68644 0.47166,0.0964 2.56492,0.1013 4.65155,0.0106 l 3.79383,-0.16466 0.19463,-1.77956 c 0.24196,-2.21299 0.43502,-3.01154 0.7283,-3.01154 0.12545,0 0.64655,0.30424 1.15819,0.67641 3.05535,2.22239 2.77973,2.11568 6.06054,2.35224 3.3286,0.24002 3.41034,0.26031 10.74894,2.70461 4.71873,1.57171 6.70752,1.98106 6.70752,1.38064 0,-1.10629 -13.67016,-6.40627 -17.42868,-6.75726 -1.4874,-0.13889 -2.07826,-0.36135 -3.57727,-1.34588 -1.42482,-0.93584 -2.47363,-1.35202 -3.87191,-1.44001 z m -32.03133,0.93952 c -0.20383,0.25712 -0.27776,1.78884 -0.17594,4.36437 0.22151,5.60224 0.41889,9.18028 0.70156,12.73062 0.13787,1.73164 0.2527,3.24083 0.25507,3.35378 0.002,0.11292 1.72907,0.20533 3.83715,0.20533 h 3.83287 v -4.7494 -4.74938 l -1.57421,-1.48972 c -1.78242,-1.68658 -3.14598,-2.70035 -3.6313,-2.70035 -0.81232,0 0.84527,3.04889 2.44419,4.49591 0.63189,0.57184 0.70394,1.51672 0.39412,5.18199 l -0.17751,2.0945 h -1.29937 c -0.98141,0 -1.34388,-0.11669 -1.48172,-0.47591 -0.10037,-0.26161 -0.42253,-3.0644 -0.71547,-6.22841 -0.6037,-6.52047 -0.70428,-7.23901 -1.22879,-8.76406 -0.20713,-0.60234 -0.51472,-1.6399 -0.68337,-2.30571 -0.20602,-0.81337 -0.375,-1.11786 -0.49728,-0.96356 z m -15.09409,0.0732 -14.03105,0.1722 c -27.479,0.33716 -49.42312,0.69646 -54.41314,0.89138 -4.84431,0.18922 -4.95756,0.20641 -2.60087,0.38766 1.35519,0.10421 15.27673,0.44993 30.93678,0.7684 34.33835,0.69832 36.95214,0.80712 38.225,1.5924 1.70797,1.05369 1.88328,0.90491 1.88328,-1.59829 z m 60.50092,1.46727 c -0.16298,0.027 -0.27003,0.0857 -0.27003,0.18289 0,0.33115 0.48242,0.53729 1.32288,0.56573 0.3949,0.0133 0.59616,-0.10875 0.5267,-0.32029 -0.10006,-0.30483 -1.09059,-0.50919 -1.57955,-0.42833 z m -26.06281,0.79889 c -0.32506,4.6e-4 -0.76357,0.24597 -0.76357,0.51064 0,0.34773 0.28333,0.35446 0.81331,0.0192 0.22148,-0.14008 0.31917,-0.33853 0.21711,-0.4406 -0.0626,-0.0626 -0.15849,-0.0895 -0.26685,-0.0893 z m -22.63148,0.53203 c -0.6745,0.002 -1.36355,0.0931 -1.69506,0.27058 -0.43749,0.23415 -0.52938,0.58279 -0.52938,2.00735 0,0.94835 0.0865,1.81151 0.19249,1.9175 0.10601,0.10602 1.06081,-0.67762 2.12177,-1.74105 1.56663,-1.57031 1.85212,-1.98274 1.51862,-2.1961 -0.27383,-0.17516 -0.93397,-0.26077 -1.60844,-0.25828 z m -6.84549,0.53474 c -3.65054,0 -4.35841,0.20733 -3.98901,1.16996 0.19896,0.51853 0.97588,0.73789 2.63297,0.74273 2.46721,0.007 2.80201,0.68257 0.49034,0.98923 l -1.35767,0.1802 v 5.23973 c 0,5.13803 0.0133,5.25945 0.68445,6.24713 0.37643,0.55398 0.68443,1.14888 0.68443,1.32183 0,0.94613 -0.57775,1.48032 -34.08519,31.52442 -7.83002,7.0207 -14.6984,13.20097 -15.26307,13.73428 -1.13127,1.06845 -1.31538,1.63007 -0.4898,1.49563 0.2954,-0.0482 11.40718,-9.63511 24.69284,-21.30485 26.95886,-23.67981 27.883,-24.52131 27.883,-25.38853 0,-0.33252 -0.36621,-1.13142 -0.81386,-1.77581 -0.78027,-1.12319 -0.8219,-1.33262 -0.99941,-5.07287 l -0.18498,-3.90132 h 0.96462 c 0.53062,0 1.35017,-0.077 1.82073,-0.17112 l 0.85555,-0.1711 v -2.42977 -2.42977 z m 43.23854,0.023 c -0.0781,-0.007 -0.14734,0.0179 -0.20587,0.0765 -0.36544,0.36541 -0.0785,5.13794 0.35988,5.98563 0.62511,1.20884 2.94726,2.55744 13.65675,7.93258 13.11373,6.58184 32.21432,16.36895 42.83641,21.9492 4.7379,2.48905 8.6803,4.45872 8.76085,4.37723 0.0805,-0.0816 -0.21151,-0.43416 -0.64915,-0.78392 -1.2381,-0.98943 -14.06106,-8.11646 -49.29797,-27.3996 l -13.13379,-7.18716 -0.44382,-1.82179 c -0.3818,-1.56606 -1.33685,-3.0867 -1.88329,-3.12864 z m -13.16427,0.51546 -1.63625,1.30471 c -0.90006,0.71771 -1.63768,1.46309 -1.63892,1.65603 -0.002,0.38744 6.78113,7.45187 7.15563,7.45187 0.1288,0 0.23421,-1.01445 0.23421,-2.25439 v -2.25439 l -1.88383,-1.78381 c -1.6011,-1.51601 -1.91023,-1.95951 -2.0576,-2.9522 z m -40.61039,0.7224 c -2.24449,0.007 -17.14848,2.93145 -17.14848,3.36446 0,0.11421 0.33879,0.16731 0.75287,0.11817 0.41409,-0.0491 4.75689,-0.46565 9.65065,-0.92613 l 8.89773,-0.83739 2.11534,2.22605 c 1.16367,1.22423 2.24163,2.14792 2.39556,2.05278 0.15393,-0.0951 0.2802,-0.70334 0.2802,-1.35176 0,-1.60858 -0.68797,-2.3909 -3.19229,-3.62861 -1.71976,-0.84994 -2.35588,-1.02214 -3.75158,-1.01757 z m 59.81969,0.97532 c -0.63344,0.0241 -1.24205,0.10172 -1.74802,0.24224 -1.14164,0.31706 -1.35605,0.97912 -0.54755,1.69131 0.44277,0.39008 3.577,2.08382 3.91148,2.11375 0.0809,0.007 0.74461,-0.59336 1.47475,-1.33466 0.79581,-0.80798 1.26687,-1.50523 1.1764,-1.74103 -0.24375,-0.63521 -2.36681,-1.04397 -4.26706,-0.97161 z m -40.72645,0.22781 c -0.4864,0 -5.8525,5.14255 -5.8525,5.60868 0,0.3705 3.65047,3.97351 4.0259,3.97351 0.1357,0 0.63322,-0.40041 1.10527,-0.88978 1.27909,-1.3261 1.79299,-3.05587 1.19081,-4.00667 -0.19481,-0.30758 -0.41268,-0.25055 -1.15928,0.30212 -1.38147,1.02265 -1.60361,1.11431 -1.60361,0.66251 0,-0.2226 0.59857,-1.06135 1.3304,-1.864 0.73183,-0.8027 1.41798,-1.73646 1.52447,-2.07526 0.25244,-0.80327 -0.0456,-1.71111 -0.56146,-1.71111 z m 31.99713,1.65227 -1.02666,0.0106 0.82133,0.67323 c 1.0332,0.8469 1.23199,0.84525 1.23199,-0.008 v -5.2e-4 c 0,-0.61017 -0.11145,-0.68359 -1.02666,-0.67483 z m -5.19963,0.0711 c -0.21474,-0.0252 -0.38285,-0.0197 -0.4914,0.0219 -0.71597,0.27473 -0.43355,0.68423 1.65283,2.39662 1.12932,0.9269 2.05331,1.87251 2.05331,2.10091 0,0.22838 -0.67759,1.12571 -1.50576,1.99397 -1.42167,1.4905 -1.74554,2.10929 -1.32344,2.53136 0.42553,0.42554 1.10373,0.0785 3.33878,-1.70897 1.30082,-1.04035 2.71088,-2.25542 3.13347,-2.70033 l 0.76786,-0.80903 -0.87749,-0.73845 c -1.46774,-1.23503 -5.24495,-2.91145 -6.74816,-3.088 z m -9.91799,0.1385 -2.12605,1.77845 c -2.93177,2.45231 -3.44947,3.05604 -3.44947,4.02326 0,0.45295 0.0816,0.905 0.18126,1.00475 0.2851,0.28505 1.27091,-0.27343 3.1618,-1.79133 0.9603,-0.77088 2.0197,-1.4015 2.35437,-1.4015 0.87137,0 2.11873,0.98259 7.67432,6.04661 2.71153,2.4716 5.4835,4.95338 6.15997,5.5151 1.23148,1.02257 1.9143,1.28658 1.9143,0.74059 0,-0.36861 -7.17317,-7.68938 -12.11035,-12.35953 z m -35.72305,0.0545 c -1.3331,0 -0.9182,0.85159 2.23566,4.58949 0.79578,0.94313 1.44696,1.93765 1.44696,2.21054 0,0.70732 -0.5728,1.1568 -6.84442,5.37126 -5.59369,3.75889 -6.84442,4.69547 -6.84442,5.12423 0,0.52764 1.13504,0.13793 3.43344,-1.17904 4.23963,-2.42932 12.56748,-7.65942 12.92473,-8.11708 0.88043,-1.12794 0.1802,-2.71119 -2.36883,-5.35684 -1.94493,-2.01865 -2.88533,-2.64256 -3.98312,-2.64256 z m 30.10208,1.36888 c -1.26115,0 -1.48258,0.18735 -0.90368,0.76625 0.40332,0.40333 0.90984,0.41792 1.60575,0.0454 0.88707,-0.47474 0.59579,-0.8117 -0.70207,-0.8117 z m -17.72436,0.27858 c -0.11058,0.009 -0.25497,0.063 -0.42671,0.1711 -0.50915,0.32062 -0.79532,1.19298 -0.39142,1.19298 0.13826,0 0.47523,-0.24708 0.74858,-0.54916 0.43112,-0.47634 0.40123,-0.84357 0.0695,-0.81492 z m 33.4323,1.2368 c -0.22024,-0.0238 -0.23955,0.2867 -0.23955,1.34963 0,0.83347 0.11608,1.51543 0.25825,1.51543 0.1422,0 0.57772,-0.2772 0.96784,-0.61602 0.6686,-0.58064 0.68424,-0.65119 0.27486,-1.22985 -0.23887,-0.33761 -0.67442,-0.74237 -0.96786,-0.89941 -0.12473,-0.0667 -0.22014,-0.11183 -0.29354,-0.11978 z m -21.58023,0.94861 c -0.35319,0 -0.35712,0.59265 -0.023,3.49867 0.29278,2.54632 0.46022,3.00356 0.92933,2.53404 0.18154,-0.18171 0.29284,-1.08521 0.2663,-2.16775 -0.0461,-1.88273 -0.64767,-3.86496 -1.17263,-3.86496 z m 11.64512,0.82133 c -0.60157,0 -1.04385,0.74248 -0.83469,1.4015 0.33921,1.06874 11.0274,11.26684 20.65999,19.71299 3.94969,3.46322 4.38042,3.72342 4.38042,2.64633 0,-0.67231 -2.40951,-3.11542 -15.68387,-15.90419 -4.4852,-4.3211 -8.31994,-7.85663 -8.52185,-7.85663 z m 18.64515,0 c -0.2313,0 -5.78618,4.69106 -6.00704,5.0729 -0.11316,0.19564 -0.13733,0.52017 -0.0535,0.72131 0.22302,0.53485 36.09695,27.05311 36.6032,27.05739 0.11294,5.8e-4 0.20535,-0.19559 0.20535,-0.43632 0,-0.63322 -1.01752,-1.51119 -8.4871,-7.32408 -9.99598,-7.77895 -21.00893,-16.5847 -22.79191,-18.22379 -0.8658,-0.79593 -1.57421,-1.62524 -1.57421,-1.8432 0,-0.67052 1.38595,-1.73889 2.25598,-1.73889 0.44414,0 1.15454,0.24674 1.57849,0.54862 0.93117,0.66307 3.56049,1.90897 4.03662,1.91268 0.18821,5.9e-4 0.34222,-0.10996 0.34222,-0.24756 0,-0.24525 -5.83569,-5.49906 -6.10813,-5.49906 z m -42.65088,0.37538 c -0.37431,0.0721 -0.53394,0.66153 -0.41546,1.65282 0.11034,0.92336 0.51518,1.45865 2.95165,3.90346 l 2.82386,2.83347 -3.76176,11.15427 c -2.06903,6.13479 -3.75157,11.33905 -3.73877,11.56493 0.0329,0.57966 3.25695,-6.06536 6.77436,-13.96261 3.80216,-8.53653 3.80888,-8.55495 3.34523,-9.42124 -0.40283,-0.75269 -6.77074,-7.19299 -7.53529,-7.62085 -0.17005,-0.0951 -0.31904,-0.12831 -0.44382,-0.10425 z m 7.74328,2.08862 c -0.12238,0 -0.57622,0.3696 -1.009,0.82132 l -0.78711,0.82133 0.78711,0.82133 c 0.43278,0.45174 0.88662,0.82134 1.009,0.82134 0.1224,0 0.22299,-0.7392 0.22299,-1.64267 0,-0.90345 -0.10058,-1.64265 -0.22299,-1.64265 z m 13.58352,0 c -0.37491,0 -1.18688,0.4437 -1.84854,1.01006 l -1.1796,1.0101 0.1476,1.95655 c 0.0814,1.07611 0.0541,2.10883 -0.0609,2.29501 -0.34178,0.55301 -2.14931,0.83311 -5.42259,0.84004 l -3.08,0.007 v 1.59508 c 0,0.87713 -0.23398,2.94071 -0.51976,4.58576 -0.73584,4.23639 -0.82798,4.9737 -0.64541,5.15631 0.24836,0.24832 0.24219,0.25859 0.84059,-1.41219 0.31016,-0.86596 0.95502,-2.83304 1.43254,-4.37135 0.56641,-1.82479 1.02447,-2.84461 1.31754,-2.93294 0.79026,-0.23816 5.04095,-0.70363 6.46475,-0.70799 2.06634,-0.007 2.15422,-0.12605 2.28541,-3.12596 0.0986,-2.25366 0.18006,-2.61906 0.58659,-2.61906 0.25985,0 0.7072,0.25973 0.99403,0.57749 0.28687,0.31774 0.99124,0.95014 1.56513,1.40526 0.90209,0.71536 1.13391,0.78648 1.71111,0.5235 0.36721,-0.16731 0.66787,-0.53138 0.66787,-0.80904 0,-0.77328 -4.44057,-4.98252 -5.25629,-4.98252 z m 0.97585,5.47553 c -0.39599,0 -0.5031,1.27046 -0.20158,2.39554 0.20938,0.78131 0.34887,0.77239 1.26783,-0.0797 0.41253,-0.38255 0.75019,-0.8049 0.75019,-0.93845 0,-0.34159 -1.36605,-1.37743 -1.81644,-1.37743 z m 5.42099,0.27216 -1.59721,1.42772 c -0.87832,0.78505 -1.64129,1.45578 -1.69558,1.4908 -0.13039,0.0841 9.87824,19.53988 18.78043,36.50694 3.91071,7.45357 9.29907,17.74073 11.97399,22.86037 2.67493,5.11962 5.35575,10.14001 5.95732,11.15639 1.01075,1.70772 1.57903,2.26891 1.57903,1.55924 0,-0.28585 -3.69251,-7.86294 -20.8065,-42.69419 -13.65104,-27.78325 -13.58872,-27.64414 -12.53866,-27.86323 0.25656,-0.0535 1.23726,0.27877 2.17951,0.73846 2.54607,1.24217 2.67042,0.70064 0.3711,-1.61645 -1.03941,-1.04744 -2.41057,-2.27815 -3.04683,-2.73507 z m -7.71118,4.38205 v 3.09709 c 0,6.27107 1.51252,19.35259 2.23778,19.35259 0.19099,0 0.25158,-2.93951 0.18609,-9.04371 -0.0832,-7.75304 -0.0392,-9.07921 0.30745,-9.29454 0.59941,-0.37222 1.24237,0.34029 2.51642,2.78913 0.61055,1.17354 1.21957,2.13407 1.35337,2.13407 0.1338,0 0.2433,-0.0554 0.2433,-0.12297 0,-0.46892 -1.56371,-4.99857 -2.23835,-6.48403 -0.92104,-2.02806 -1.47862,-2.42763 -3.38693,-2.42763 z m -4.10667,0.27377 5.3e-4,4.72265 c 5.5e-4,5.95768 1.02921,41.10328 1.23787,42.2985 0.26037,1.49114 0.62159,0.99833 0.80317,-1.09511 0.21691,-2.50063 0.62119,-33.46243 0.5219,-39.9655 -0.0428,-2.8077 -0.19866,-5.08686 -0.37004,-5.40711 -0.20986,-0.39209 -0.573,-0.55343 -1.24484,-0.55343 z m -2.3608,0.27378 c -0.7948,0 -0.82943,0.36886 -0.10316,1.09511 0.65368,0.65369 1.05519,0.69558 1.27102,0.13313 0.22268,-0.58027 -0.39357,-1.22824 -1.16784,-1.22824 z"
       inkscape:export-filename="/home/mik/Pictures/wp/wp_projects/eye_of_the_universe/rect986.png"
       inkscape:export-xdpi="120"
       inkscape:export-ydpi="120" />
  </g>
</svg>
